<svg width="31" height="30" viewBox="0 0 31 30" fill="none" xmlns="http://www.w3.org/2000/svg">
<path d="M1.42193 17.4375C2.78131 25.0781 10.0469 30.1875 17.7344 28.8281C25.3751 27.4687 30.4844 20.2031 29.1251 12.5156C27.7657 4.92187 20.4532 -0.187505 12.8126 1.17187C5.17193 2.48437 0.062557 9.79687 1.42193 17.4375Z" fill="#FFDD67"/>
<path d="M20.125 13.9219C21.4194 13.9219 22.4688 12.8725 22.4688 11.5781C22.4688 10.2837 21.4194 9.23438 20.125 9.23438C18.8306 9.23438 17.7812 10.2837 17.7812 11.5781C17.7812 12.8725 18.8306 13.9219 20.125 13.9219Z" fill="#664E27"/>
<path d="M9.48438 15.7969C10.7788 15.7969 11.8281 14.7475 11.8281 13.4531C11.8281 12.1587 10.7788 11.1094 9.48438 11.1094C8.18996 11.1094 7.14062 12.1587 7.14062 13.4531C7.14062 14.7475 8.18996 15.7969 9.48438 15.7969Z" fill="#664E27"/>
<path d="M20.5468 19.5937C17.8281 18.8906 14.9218 19.4062 12.625 21C12.0625 21.4218 13.1406 22.875 13.7031 22.5C15.2031 21.4218 17.6406 20.7187 20.125 21.375C20.7343 21.5156 21.25 19.8281 20.5468 19.5937Z" fill="#664E27"/>
</svg>
