<svg width="31" height="30" viewBox="0 0 31 30" fill="none" xmlns="http://www.w3.org/2000/svg">
<path d="M15.25 29.0625C23.0165 29.0625 29.3125 22.7665 29.3125 15C29.3125 7.2335 23.0165 0.9375 15.25 0.9375C7.4835 0.9375 1.1875 7.2335 1.1875 15C1.1875 22.7665 7.4835 29.0625 15.25 29.0625Z" fill="#FFDD67"/>
<path d="M25.1874 12.0469C23.6874 10.7813 21.6718 10.2188 19.703 10.5938C19.4218 10.6407 19.1874 9.6563 19.5155 9.56255C21.7655 9.14068 24.1093 9.79693 25.8436 11.2501C26.1249 11.4844 25.3749 12.2344 25.1874 12.0469ZM10.7968 10.5001C8.82801 10.1719 6.81239 10.6876 5.31239 11.9532C5.12489 12.1407 4.37489 11.3907 4.65614 11.1563C6.39051 9.6563 8.73426 9.04693 10.9843 9.4688C11.3124 9.56255 11.078 10.5938 10.7968 10.5001Z" fill="#917524"/>
<path d="M17.0782 15.0938C19.047 18.8438 23.0313 18.8438 25.0001 15.0938C25.0938 14.9063 24.8595 14.8125 24.5313 14.625C22.5626 16.1719 19.3282 16.0313 17.547 14.625C17.2657 14.8125 16.9845 14.9063 17.0782 15.0938ZM5.50008 15.0938C7.46883 18.8438 11.4532 18.8438 13.422 15.0938C13.5157 14.9063 13.2813 14.8125 12.9532 14.625C10.9845 16.1719 7.75008 16.0313 5.96883 14.625C5.6407 14.8125 5.40633 14.9063 5.50008 15.0938ZM18.0626 23.4375H12.4376C11.8282 23.4375 11.8282 21.5625 12.4376 21.5625H18.0626C18.672 21.5625 18.672 23.4375 18.0626 23.4375Z" fill="#664E27"/>
</svg>
