<svg width="31" height="30" viewBox="0 0 31 30" fill="none" xmlns="http://www.w3.org/2000/svg">
<path d="M15.25 29.0625C23.0165 29.0625 29.3125 22.7665 29.3125 15C29.3125 7.2335 23.0165 0.9375 15.25 0.9375C7.4835 0.9375 1.1875 7.2335 1.1875 15C1.1875 22.7665 7.4835 29.0625 15.25 29.0625Z" fill="#FFDD67"/>
<path d="M9.85938 13.875C11.1538 13.875 12.2031 12.8257 12.2031 11.5312C12.2031 10.2368 11.1538 9.1875 9.85938 9.1875C8.56496 9.1875 7.51562 10.2368 7.51562 11.5312C7.51562 12.8257 8.56496 13.875 9.85938 13.875Z" fill="#664E27"/>
<path d="M20.6406 13.875C21.935 13.875 22.9844 12.8257 22.9844 11.5312C22.9844 10.2368 21.935 9.1875 20.6406 9.1875C19.3462 9.1875 18.2969 10.2368 18.2969 11.5312C18.2969 12.8257 19.3462 13.875 20.6406 13.875Z" fill="#664E27"/>
<path d="M22.7969 17.3438C20.7813 20.2032 18.3438 20.9063 15.2501 20.9063C12.1563 20.9063 9.71881 20.2032 7.70318 17.3438C7.42193 16.9688 6.67193 17.2032 6.85943 17.7657C7.93756 21.5157 11.5469 23.7188 15.2969 23.7188C19.0469 23.7188 22.6563 21.5157 23.7344 17.7657C23.8282 17.2032 23.0782 16.9688 22.7969 17.3438Z" fill="#664E27"/>
</svg>
