<svg width="31" height="30" viewBox="0 0 31 30" fill="none" xmlns="http://www.w3.org/2000/svg">
<path d="M15.75 0.9375C23.5312 0.9375 29.8125 7.21875 29.8125 15C29.8125 22.7812 23.5312 29.0625 15.75 29.0625C7.96875 29.0625 1.6875 22.7812 1.6875 15C1.6875 7.21875 7.96875 0.9375 15.75 0.9375Z" fill="#FFDD67"/>
<path d="M17.5314 9.60942C16.5001 10.125 14.9532 10.125 13.922 9.60942C12.8439 9.04692 11.4845 8.67192 9.84387 8.53129C8.25012 8.39067 4.92199 8.39067 3.28137 9.00004C3.09387 9.04692 2.90637 9.14067 2.71887 9.23442C2.67199 9.28129 2.62512 9.32817 2.62512 9.51567V9.75004C2.62512 10.2188 2.57824 10.0313 2.90637 10.2188C3.56262 10.5938 3.93762 11.5782 4.12512 12.9375C4.40637 14.9063 5.39074 16.1719 6.93762 16.7344C8.39074 17.2969 10.0314 17.25 11.4845 16.6875C12.2814 16.3594 12.9845 15.8907 13.547 15.0469C14.5314 13.6407 14.2032 12.75 14.7189 11.5313C15.1407 10.4532 16.3595 10.4532 16.8282 11.5313C17.3439 12.75 17.0157 13.6407 18.0001 15.0469C18.5626 15.8438 19.2657 16.3594 20.0626 16.6875C21.5157 17.25 23.1564 17.2969 24.6095 16.7344C26.2032 16.125 27.1407 14.9063 27.422 12.9375C27.6095 11.5782 27.9845 10.5938 28.6407 10.2188C28.9689 10.0313 28.922 10.2188 28.922 9.75004V9.51567C28.922 9.32817 28.922 9.28129 28.7814 9.23442C28.5939 9.14067 28.4064 9.04692 28.2189 9.00004C26.5314 8.39067 23.2032 8.39067 21.6564 8.53129C20.0157 8.67192 18.6564 9.04692 17.5314 9.60942Z" fill="#494949"/>
<path d="M21.6562 19.8282C17.8593 22.5001 13.6406 22.4532 9.8437 19.8282C9.37495 19.5001 8.99995 20.0626 9.2812 20.5782C10.4531 22.4532 12.75 24.1876 15.75 24.1876C18.75 24.1876 21.0468 22.5001 22.2187 20.5782C22.5 20.0626 22.125 19.5001 21.6562 19.8282Z" fill="#664E27"/>
</svg>
