<svg width="31" height="30" viewBox="0 0 31 30" fill="none" xmlns="http://www.w3.org/2000/svg">
<path d="M15.25 29.0625C23.0165 29.0625 29.3125 22.7665 29.3125 15C29.3125 7.2335 23.0165 0.9375 15.25 0.9375C7.4835 0.9375 1.1875 7.2335 1.1875 15C1.1875 22.7665 7.4835 29.0625 15.25 29.0625Z" fill="#FFDD67"/>
<path d="M10.8438 8.53124C9.34377 9.79687 7.32814 10.3594 5.35939 9.98437C5.07814 9.93749 4.84377 10.9219 5.17189 11.0156C7.42189 11.4375 9.76564 10.7812 11.5 9.32812C11.7344 9.09374 11.0313 8.34374 10.8438 8.53124ZM25.1406 9.93749C23.1719 10.2656 21.1563 9.74999 19.6563 8.48437C19.4688 8.29687 18.7188 9.04687 19 9.28124C20.7344 10.7812 23.0781 11.3906 25.3281 10.9687C25.6563 10.875 25.4219 9.89062 25.1406 9.93749Z" fill="#917524"/>
<path d="M22.0938 19.875C21.8595 19.5938 21.3907 19.5 21.0626 19.7344L19.0938 21.0469C18.7657 21.2813 18.2501 21.2344 17.9688 21L15.8126 19.1719C15.5313 18.9375 15.0626 18.9375 14.7345 19.1719L12.5782 21C12.297 21.2344 11.7813 21.2813 11.4532 21.0469L9.43759 19.7344C9.10946 19.5 8.64071 19.5938 8.40633 19.875L6.34383 22.3125C6.10946 22.5938 6.15633 22.6875 6.48446 22.5L8.26571 21.5157C8.59384 21.3282 9.10946 21.375 9.39071 21.6563L11.547 23.7657C11.8282 24.0469 12.297 24.0469 12.6251 23.8125L14.7345 22.2188C15.0626 21.9844 15.5313 21.9844 15.8595 22.2188L17.922 23.8125C18.2501 24.0469 18.7188 24 19.0001 23.7657L21.1563 21.6563C21.4376 21.375 21.9532 21.3282 22.2813 21.5157L24.0626 22.5C24.3907 22.6875 24.4845 22.5938 24.2032 22.3125L22.0938 19.875ZM24.4845 13.1719C24.7657 13.3125 24.6251 13.6407 24.3907 13.6875C23.1251 13.875 21.8126 14.1094 20.5001 14.8125C22.3751 15.1407 23.8751 16.0782 24.7188 17.0625C24.9063 17.2969 24.672 17.5782 24.4845 17.5313C22.2345 16.7344 19.9376 16.2657 17.0782 16.5938C16.8438 16.5938 16.6563 16.5 16.7032 16.2657C17.4532 12.8438 21.8126 11.5782 24.4845 13.1719ZM6.01571 13.1719C5.73446 13.3125 5.87508 13.6407 6.10946 13.6875C7.37508 13.875 8.68758 14.1094 10.0001 14.8125C8.12508 15.1407 6.62508 16.0782 5.78133 17.0625C5.59383 17.2969 5.82821 17.5782 6.01571 17.5313C8.26571 16.7344 10.5626 16.2657 13.422 16.5938C13.6563 16.5938 13.8438 16.5 13.797 16.2657C13.047 12.8438 8.68759 11.5782 6.01571 13.1719Z" fill="#664E27"/>
</svg>
