<svg width="31" height="30" viewBox="0 0 31 30" fill="none" xmlns="http://www.w3.org/2000/svg">
<path d="M15.75 29.0625C23.5165 29.0625 29.8125 22.7665 29.8125 15C29.8125 7.2335 23.5165 0.9375 15.75 0.9375C7.9835 0.9375 1.6875 7.2335 1.6875 15C1.6875 22.7665 7.9835 29.0625 15.75 29.0625Z" fill="#FFDD67"/>
<path d="M10.3594 15.2812C11.6538 15.2812 12.7031 14.2319 12.7031 12.9375C12.7031 11.6431 11.6538 10.5938 10.3594 10.5938C9.06496 10.5938 8.01562 11.6431 8.01562 12.9375C8.01562 14.2319 9.06496 15.2812 10.3594 15.2812Z" fill="#664E27"/>
<path d="M21.1406 15.2812C22.435 15.2812 23.4844 14.2319 23.4844 12.9375C23.4844 11.6431 22.435 10.5938 21.1406 10.5938C19.8462 10.5938 18.7969 11.6431 18.7969 12.9375C18.7969 14.2319 19.8462 15.2812 21.1406 15.2812Z" fill="#664E27"/>
<path d="M18.9844 22.5H12.5156C11.8125 22.5 11.8125 20.625 12.5156 20.625H18.9375C19.6875 20.625 19.6875 22.5 18.9844 22.5Z" fill="#664E27"/>
</svg>
