<svg width="31" height="30" viewBox="0 0 31 30" fill="none" xmlns="http://www.w3.org/2000/svg">
<path d="M15.75 29.0625C23.5165 29.0625 29.8125 22.7665 29.8125 15C29.8125 7.2335 23.5165 0.9375 15.75 0.9375C7.9835 0.9375 1.6875 7.2335 1.6875 15C1.6875 22.7665 7.9835 29.0625 15.75 29.0625Z" fill="#FFDD67"/>
<path d="M10.3594 16.2187C11.6538 16.2187 12.7031 15.1694 12.7031 13.875C12.7031 12.5806 11.6538 11.5312 10.3594 11.5312C9.06496 11.5312 8.01562 12.5806 8.01562 13.875C8.01562 15.1694 9.06496 16.2187 10.3594 16.2187Z" fill="#664E27"/>
<path d="M21.1406 16.2187C22.435 16.2187 23.4844 15.1694 23.4844 13.875C23.4844 12.5806 22.435 11.5312 21.1406 11.5312C19.8462 11.5312 18.7969 12.5806 18.7969 13.875C18.7969 15.1694 19.8462 16.2187 21.1406 16.2187Z" fill="#664E27"/>
<path d="M24.7499 8.76568C23.2499 7.50005 21.2343 6.93755 19.2655 7.31255C18.9843 7.35943 18.7499 6.37505 19.078 6.2813C21.328 5.85943 23.6718 6.51568 25.4061 7.9688C25.6874 8.20318 24.9374 8.95318 24.7499 8.76568ZM12.2343 7.2188C10.2655 6.89068 8.24989 7.4063 6.74989 8.67193C6.56239 8.85943 5.81239 8.10943 6.09364 7.87505C7.82801 6.37505 10.1718 5.76568 12.4218 6.18755C12.7499 6.2813 12.5155 7.31255 12.2343 7.2188Z" fill="#917524"/>
<path d="M19.7813 20.8125C17.2501 19.6406 14.2501 19.6406 11.7188 20.8125C11.1094 21.0938 11.8594 22.7813 12.5157 22.4531C14.2032 21.6563 16.6876 21.375 19.0313 22.4531C19.6407 22.7344 20.4376 21.1406 19.7813 20.8125Z" fill="#664E27"/>
</svg>
